name C:\Users\u0101727\Documents\MyRepositories\paper-ad\trackingsimulations_3d\Results\TrackSim\IK_c8.mot
datacolumns 32
datarows 7
range 3.45000000 3.54600000
endheader
time	pelvis_tilt	pelvis_list	pelvis_rotation	pelvis_tx	pelvis_ty	pelvis_tz	hip_flexion_l	hip_adduction_l	hip_rotation_l	hip_flexion_r	hip_adduction_r	hip_rotation_r	knee_angle_l	knee_angle_r	ankle_angle_l	ankle_angle_r	subtalar_angle_l	subtalar_angle_r	lumbar_extension	lumbar_bending	lumbar_rotation	arm_flex_l	arm_add_l	arm_rot_l	arm_flex_r	arm_add_r	arm_rot_r	elbow_flex_l	elbow_flex_r	pro_sup_l	pro_sup_r	
          3.45000000	         -2.17148266	          4.37702316	          4.37289743	         -0.51205777	          0.94282979	         -0.22993526	         15.23686352	          9.19599280	          3.44397987	         13.39810077	         -1.80962956	         -2.18758825	        -22.11634969	        -65.21405316	          5.22081630	        -12.91460214	          5.73421398	        -13.55341464	         -4.53959274	         -4.05299035	         -3.36039566	         -1.82925896	        -15.69271909	         17.87413133	         -4.81451788	        -16.91142974	         12.13984388	         21.29003225	         23.53330669	         86.51662706	         86.51662706	
          3.46600000	         -2.19801448	          4.16524257	          4.32788076	         -0.49355403	          0.94577785	         -0.23051065	         13.81917255	          8.95386295	          3.79897336	         16.56284546	         -1.90174144	         -2.04486786	        -21.96094300	        -66.48530905	          6.86908941	        -10.77271901	          5.93909214	        -12.82707888	         -4.71142384	         -3.91182083	         -3.85368776	         -1.63204973	        -15.90045234	         17.29482387	         -5.01020786	        -16.82356928	         12.39925236	         22.63055760	         23.02672068	         86.51662706	         86.51662706	
          3.48200000	         -2.17480951	          3.88220259	          4.26910069	         -0.47497780	          0.94851268	         -0.23101634	         12.29342804	          8.61726779	          4.12664972	         19.46034142	         -1.91127135	         -1.95700217	        -21.61447800	        -66.78398764	          8.02166885	         -8.86241807	          6.00911396	        -11.85832191	         -4.89833218	         -3.66323189	         -4.31454338	         -1.42293332	        -16.08474666	         16.78585415	         -5.27939468	        -16.75917148	         12.44886406	         23.94339852	         22.60533780	         86.51662706	         86.51662706	
          3.49800000	         -2.11741453	          3.51436070	          4.31346339	         -0.45630475	          0.95089861	         -0.23163041	         10.71215271	          8.22041701	          4.56588859	         22.03184594	         -1.84801497	         -2.03589625	        -21.15999234	        -66.09967601	          8.71958749	         -7.18983380	          5.84596813	        -10.91183204	         -5.09083150	         -3.28665398	         -4.84341715	         -1.19768490	        -16.25068139	         16.38478010	         -5.64306255	        -16.71648842	         12.20134715	         25.21810432	         22.31539864	         86.51662706	         86.51662706	
          3.51400000	         -2.03790313	          3.09901813	          4.43037478	         -0.43750661	          0.95281991	         -0.23228537	          9.09212365	          7.77859202	          5.06192450	         24.26559078	         -1.75681006	         -2.25157607	        -20.63719458	        -64.49063403	          9.15602840	         -5.61435500	          5.55919407	        -10.18040540	         -5.27935424	         -2.83421596	         -5.40377166	         -0.96307301	        -16.41850979	         16.08054953	         -6.07594764	        -16.67870695	         11.70010843	         26.46228021	         22.11543321	         86.51662706	         86.51662706	
          3.53000000	         -1.94128465	          2.67745847	          4.57481967	         -0.41855919	          0.95419325	         -0.23288010	          7.43426597	          7.30264408	          5.52348221	         26.15362956	         -1.66717866	         -2.55532089	        -20.07012749	        -62.01835152	          9.51890387	         -3.99559102	          5.29591024	         -9.90765785	         -5.46322447	         -2.36486835	         -5.95264622	         -0.72632216	        -16.60532624	         15.84747959	         -6.53382298	        -16.62818208	         11.04558935	         27.67353750	         21.93564116	         86.51662706	         86.51662706	
          3.54600000	         -1.82745183	          2.28885094	          4.71878352	         -0.39942667	          0.95497664	         -0.23335985	          5.72205680	          6.81255478	          5.88728105	         27.67836465	         -1.60709886	         -2.90210746	        -19.45026293	        -58.74371370	          9.89875750	         -2.35826263	          5.16069220	        -10.05396668	         -5.64692216	         -1.92972663	         -6.46905846	         -0.49261842	        -16.81596498	         15.66798852	         -6.97957244	        -16.55395392	         10.33289400	         28.82852140	         21.72120325	         86.51662706	         86.51662706	
